<svg width="24" height="24" viewBox="0 0 24 24" fill="none" xmlns="http://www.w3.org/2000/svg">
<path d="M14.8649 1.10721C15.9071 1.29271 16.8669 1.79358 17.6149 2.5417L17.6064 2.55347C18.3318 3.27905 18.8264 4.20301 19.0279 5.20905C19.2293 6.2151 19.1286 7.25825 18.7385 8.2072C18.3484 9.15616 17.6863 9.9685 16.8355 10.542C15.9851 11.1151 14.9843 11.4241 13.9588 11.43C13.9035 11.4299 13.844 11.4226 13.7491 11.4096C13.7449 11.409 13.7406 11.4084 13.7363 11.4078C13.6525 11.3963 13.5337 11.38 13.41 11.38H13.2317L13.0936 11.4928L3.6538 19.2066L0.993325 16.5462L8.70718 7.10634L8.83906 6.94496L8.81727 6.73769C8.70518 5.67136 8.9274 4.59657 9.45315 3.66212C9.9789 2.72767 10.7822 1.9798 11.7518 1.52205C12.7213 1.06431 13.8092 0.919338 14.8649 1.10721ZM3.38645 18.2135L3.70579 18.5329L4.05588 18.2475L11.9459 11.8175L12.5806 11.3003L11.8305 10.9719C10.678 10.4674 9.75923 9.54531 9.25874 8.39105L8.93201 7.63751L8.41266 8.27379L1.97266 16.1638L1.68687 16.5139L2.00645 16.8335L3.38645 18.2135ZM14.8971 10.8497C15.4499 10.7397 15.9754 10.5319 16.45 10.2388V10.4119L17.3004 9.57667C17.7429 9.14199 18.0945 8.62348 18.3344 8.05144C18.5744 7.47941 18.698 6.86529 18.698 6.24496C18.698 5.62462 18.5744 5.01051 18.3344 4.43847C18.0948 3.86713 17.7438 3.3492 17.302 2.91484C16.6449 2.25842 15.808 1.8114 14.8971 1.63023C13.9854 1.44892 13.0404 1.54202 12.1816 1.89777C11.3228 2.25351 10.5888 2.85592 10.0724 3.62883C9.55595 4.40173 9.28031 5.3104 9.28031 6.23996C9.28031 7.16951 9.55595 8.07819 10.0724 8.85109C10.5888 9.62399 11.3228 10.2264 12.1816 10.5821C13.0404 10.9379 13.9854 11.031 14.8971 10.8497Z" fill="#FCFCFC" stroke="#FCFCFC"/>
</svg>
