<svg width="24" height="24" viewBox="0 0 24 24" fill="none" xmlns="http://www.w3.org/2000/svg">
<path d="M18.8 1.23823V15.9967C18.791 16.6531 18.5633 17.2877 18.153 17.8002C17.742 18.3134 17.1713 18.6746 16.5315 18.8265C15.8918 18.9783 15.2197 18.9121 14.6219 18.6383C14.0241 18.3645 13.5349 17.8988 13.232 17.3152C12.9291 16.7316 12.8298 16.0636 12.95 15.4171C13.0701 14.7707 13.4028 14.1829 13.8952 13.7471C14.3876 13.3114 15.0114 13.0526 15.6677 13.0119C16.3239 12.9712 16.975 13.1509 17.5174 13.5225L18.3 14.0586V13.11V2.48999V1.86109L17.6873 2.00285L7.4873 4.36285L7.10001 4.45246V4.84999L7.10001 17.75L7.10001 17.7509C7.10117 18.4102 6.8814 19.051 6.47578 19.5708C6.07017 20.0906 5.50209 20.4596 4.86224 20.6188C4.22239 20.778 3.54765 20.7182 2.94574 20.449C2.34383 20.1799 1.84944 19.7168 1.5415 19.1338C1.23356 18.5507 1.12983 17.8814 1.24685 17.2325C1.36387 16.5836 1.69491 15.9926 2.18712 15.5539C2.67933 15.1151 3.30433 14.854 3.96235 14.812C4.62037 14.7701 5.27347 14.9498 5.8174 15.3225L6.60001 15.8587V14.91V4.04792L18.8 1.23823ZM3.88351 20.1406L3.94804 20.2051L4.16235 20.1998C4.49069 20.1917 4.81421 20.119 5.11443 19.9858C5.41465 19.8526 5.68568 19.6616 5.91205 19.4236C6.13841 19.1857 6.31566 18.9054 6.43368 18.5989C6.55094 18.2944 6.60743 17.9699 6.6 17.6437C6.59876 17.1514 6.45222 16.6704 6.17869 16.2611C5.90398 15.8499 5.51354 15.5295 5.05672 15.3403C4.59991 15.1511 4.09724 15.1016 3.61229 15.198C3.12733 15.2945 2.68188 15.5326 2.33224 15.8822C1.98261 16.2318 1.74451 16.6773 1.64805 17.1623C1.55159 17.6472 1.60109 18.1499 1.79031 18.6067C1.97953 19.0635 2.29996 19.454 2.71109 19.7287C3.06195 19.9631 3.46543 20.1043 3.88351 20.1406ZM15.5782 18.3353L15.6479 18.4049L17.8 16L18.2994 16.0254C18.2994 16.0252 18.2994 16.025 18.2994 16.0248C18.3241 15.5386 18.2033 15.056 17.9525 14.6387C17.7016 14.2212 17.332 13.888 16.8909 13.6816C16.4497 13.4752 15.957 13.4049 15.4757 13.4798C14.9945 13.5548 14.5464 13.7714 14.1889 14.1021C13.8313 14.4329 13.5805 14.8627 13.4683 15.3367C13.3562 15.8107 13.3879 16.3073 13.5594 16.7632C13.7309 17.2191 14.0343 17.6135 14.431 17.8961C14.7708 18.1382 15.1659 18.2888 15.5782 18.3353Z" fill="#FCFCFC" stroke="#FCFCFC"/>
</svg>
